<svg xmlns="http://www.w3.org/2000/svg" xmlns:xlink="http://www.w3.org/1999/xlink" width="500" viewBox="0 0 375 374.999991" height="500" preserveAspectRatio="xMidYMid meet"><path fill="#ff3131" d="M 279.480469 6.128906 C 279.480469 6.746094 282.445312 9.09375 286.023438 11.191406 C 289.480469 13.414062 296.761719 18.472656 302.070312 22.546875 C 313.179688 31.0625 314.785156 29.582031 304.539062 19.953125 L 297.378906 13.414062 L 305.898438 17.980469 C 310.585938 20.570312 315.523438 23.535156 316.757812 24.644531 C 324.90625 31.1875 331.445312 38.839844 335.765625 46.367188 C 340.335938 54.636719 340.582031 55.503906 340.582031 66.117188 L 340.582031 77.226562 L 323.425781 116.726562 C 314.042969 138.449219 305.648438 157.828125 304.664062 159.925781 C 303.796875 161.902344 299.355469 171.898438 295.035156 182.144531 L 287.011719 200.65625 L 276.765625 200.164062 C 271.089844 199.917969 266.152344 199.175781 265.65625 198.4375 C 265.289062 197.695312 265.90625 195.722656 267.261719 194.117188 C 268.496094 192.386719 269.609375 190.167969 269.609375 189.054688 C 269.609375 187.945312 270.472656 185.96875 271.460938 184.734375 C 272.445312 183.378906 273.3125 181.277344 273.3125 179.921875 C 273.3125 178.6875 274.421875 176.21875 275.78125 174.492188 C 277.136719 172.761719 278.246094 170.417969 278.246094 169.304688 C 278.246094 168.070312 279.113281 166.097656 280.097656 164.738281 C 281.085938 163.503906 281.949219 161.285156 281.949219 160.050781 C 281.949219 158.691406 282.816406 156.59375 283.925781 155.480469 C 285.035156 154.246094 286.148438 151.777344 286.269531 150.050781 C 286.519531 148.445312 287.628906 146.101562 288.738281 144.992188 C 289.851562 143.757812 290.589844 141.65625 290.34375 140.175781 C 289.972656 138.449219 290.589844 136.96875 292.074219 135.980469 C 293.304688 135.238281 294.292969 133.265625 294.292969 131.660156 C 294.292969 130.054688 295.15625 128.082031 296.144531 127.214844 C 297.132812 126.351562 297.996094 124.625 297.996094 123.265625 C 297.996094 121.910156 299.109375 119.441406 300.464844 117.710938 C 301.824219 115.984375 302.933594 113.390625 302.933594 111.910156 C 302.933594 110.554688 303.796875 108.207031 304.785156 106.972656 C 305.773438 105.617188 306.636719 103.640625 306.636719 102.40625 C 306.636719 101.296875 307.378906 99.691406 308.367188 98.949219 C 309.351562 98.085938 310.464844 95.988281 310.832031 94.136719 C 311.574219 90.925781 313.796875 85.867188 317.375 78.832031 C 318.238281 77.101562 318.980469 74.511719 318.980469 73.152344 C 318.980469 71.796875 319.84375 70.066406 320.957031 69.082031 C 322.191406 68.09375 322.683594 66.242188 322.4375 64.019531 C 322.066406 62.042969 322.558594 59.945312 323.546875 59.207031 C 325.523438 57.476562 325.644531 53.898438 323.671875 50.320312 C 322.929688 48.835938 322.3125 45.875 322.4375 43.898438 C 322.558594 41.800781 321.941406 39.332031 321.078125 38.222656 C 318.488281 34.890625 307.5 28.71875 291.824219 21.683594 C 278 15.511719 276.890625 15.265625 275.78125 17.363281 C 274.175781 20.324219 274.175781 21.066406 275.78125 21.066406 C 276.519531 21.066406 286.148438 25.015625 297.257812 29.828125 C 313.300781 36.742188 317.746094 39.210938 318.855469 41.679688 C 319.722656 43.40625 320.089844 45.011719 319.96875 45.132812 C 319.722656 45.382812 309.105469 40.9375 296.144531 35.261719 C 274.296875 25.753906 272.570312 25.261719 271.582031 27.359375 C 270.964844 28.71875 270.71875 29.953125 270.964844 30.074219 C 271.210938 30.324219 282.320312 35.136719 295.527344 40.8125 C 308.734375 46.492188 320.089844 51.554688 320.585938 52.046875 C 321.203125 52.417969 321.449219 54.019531 321.203125 55.378906 C 320.832031 57.722656 318.980469 57.105469 296.761719 47.480469 C 283.554688 41.800781 271.707031 36.617188 270.59375 35.878906 C 268.867188 34.890625 268.125 35.261719 267.015625 37.234375 C 266.273438 38.59375 265.90625 39.949219 266.152344 40.074219 C 266.398438 40.195312 277.878906 45.257812 291.824219 51.183594 C 321.078125 63.527344 320.585938 63.277344 319.597656 65.746094 C 318.980469 67.351562 316.636719 66.734375 305.648438 61.796875 C 269.730469 46 264.546875 44.023438 263.3125 45.875 C 262.695312 46.863281 262.203125 47.851562 262.203125 48.21875 C 262.203125 48.589844 274.421875 54.144531 289.355469 60.5625 C 304.292969 66.980469 316.511719 72.535156 316.511719 72.90625 C 316.511719 73.277344 316.019531 74.265625 315.402344 75.25 C 314.535156 76.609375 308.984375 74.632812 287.011719 65.128906 C 261.832031 54.269531 259.734375 53.527344 258.992188 55.871094 C 258.621094 57.230469 258.5 58.464844 258.746094 58.589844 C 258.871094 58.835938 271.089844 64.144531 285.652344 70.4375 C 300.21875 76.609375 312.316406 81.917969 312.5625 82.164062 C 313.179688 82.78125 311.203125 86.484375 310.214844 86.484375 C 309.105469 86.484375 266.273438 68.339844 259.363281 64.882812 C 256.277344 63.402344 255.90625 63.402344 254.671875 65.746094 C 253.933594 67.105469 253.5625 68.339844 253.808594 68.464844 C 254.054688 68.710938 266.152344 73.894531 280.714844 80.066406 C 295.28125 86.238281 307.378906 91.792969 307.5 92.285156 C 307.75 92.777344 307.378906 94.011719 306.761719 95 C 305.773438 96.480469 300.589844 94.628906 278.371094 85.003906 C 263.3125 78.585938 251.09375 73.648438 251.09375 74.265625 C 251.09375 74.757812 250.847656 75.992188 250.476562 76.855469 C 249.980469 78.089844 257.265625 81.792969 277.015625 90.1875 C 291.949219 96.605469 304.167969 102.160156 304.167969 102.53125 C 304.167969 102.898438 303.675781 103.886719 303.058594 104.875 C 302.070312 106.355469 296.886719 104.503906 274.667969 94.878906 C 248.871094 83.644531 247.265625 83.152344 246.03125 85.375 C 244.921875 87.472656 245.414062 88.089844 250.105469 90.0625 C 253.066406 91.296875 265.410156 96.605469 277.628906 101.914062 C 289.851562 107.097656 299.972656 111.539062 300.09375 111.664062 C 300.34375 111.910156 299.726562 112.898438 298.859375 114.132812 C 297.378906 116.230469 295.773438 115.738281 275.039062 106.851562 C 262.941406 101.542969 250.722656 96.234375 248.128906 95 C 245.414062 93.765625 243.195312 92.777344 243.070312 93.027344 C 242.824219 93.148438 242.453125 94.382812 242.082031 95.742188 C 241.34375 97.964844 244.304688 99.445312 268.375 109.8125 C 283.308594 116.230469 295.527344 121.785156 295.527344 122.402344 C 295.527344 122.894531 295.035156 123.761719 294.292969 124.128906 C 293.429688 124.625 272.941406 116.230469 240.476562 101.789062 C 239.367188 101.296875 236.898438 106.234375 237.886719 106.851562 C 238.007812 106.972656 250.105469 112.15625 264.671875 118.328125 C 279.234375 124.5 291.332031 130.054688 291.457031 130.550781 C 291.703125 131.042969 291.332031 132.277344 290.714844 133.140625 C 289.726562 134.746094 287.382812 133.757812 236.773438 111.664062 C 235.046875 110.921875 233.320312 114.875 234.675781 116.230469 C 235.171875 116.726562 247.390625 122.277344 261.585938 128.328125 C 286.023438 138.941406 288.738281 140.671875 285.777344 143.632812 C 285.285156 144.125 272.816406 139.1875 257.882812 132.769531 C 243.070312 126.351562 230.851562 121.167969 230.601562 121.292969 C 230.480469 121.539062 230.109375 122.648438 229.863281 124.007812 C 229.617188 125.859375 233.8125 128.203125 256.03125 137.707031 C 270.59375 144.003906 282.691406 149.679688 282.816406 150.175781 C 282.9375 150.792969 282.691406 152.027344 282.074219 152.890625 C 281.332031 154.125 274.914062 151.902344 254.054688 142.890625 C 228.875 132.03125 226.902344 131.289062 225.914062 133.511719 C 225.296875 134.867188 225.050781 136.101562 225.296875 136.226562 C 225.542969 136.472656 237.515625 141.65625 251.710938 147.582031 C 266.027344 153.628906 278 158.9375 278.617188 159.308594 C 279.113281 159.679688 278.742188 160.914062 278 162.023438 C 276.519531 163.753906 273.558594 162.765625 249.859375 152.519531 C 225.789062 142.152344 223.199219 141.289062 221.714844 143.015625 C 220.234375 144.867188 221.222656 145.609375 229.738281 149.558594 C 235.046875 151.902344 247.265625 157.210938 256.894531 161.285156 C 266.523438 165.234375 274.421875 169.058594 274.546875 169.800781 C 274.546875 174.613281 272.078125 173.996094 245.539062 162.394531 C 225.667969 153.753906 218.261719 151.039062 217.519531 152.273438 C 217.027344 153.011719 216.777344 154.246094 216.902344 154.863281 C 217.148438 155.480469 229.246094 161.160156 243.8125 167.453125 C 258.375 173.75 270.101562 179.304688 269.976562 179.675781 C 268.742188 183.871094 272.078125 184.859375 236.652344 169.429688 C 215.792969 160.296875 214.0625 159.800781 213.324219 162.023438 C 212.953125 163.382812 212.828125 164.617188 213.078125 164.738281 C 213.199219 164.988281 225.417969 170.292969 239.984375 176.589844 C 254.550781 182.882812 266.644531 188.066406 266.769531 188.316406 C 267.015625 188.4375 266.398438 189.425781 265.535156 190.535156 C 264.175781 192.511719 261.707031 191.648438 237.269531 181.03125 C 212.210938 170.171875 210.238281 169.554688 209.125 171.652344 C 208.386719 172.886719 208.261719 174.242188 208.757812 174.492188 C 209.375 174.738281 221.097656 179.921875 235.046875 185.847656 C 248.996094 191.769531 260.84375 197.203125 261.460938 197.695312 C 262.203125 198.4375 262.203125 199.300781 261.339844 200.164062 C 260.351562 201.152344 253.933594 198.929688 238.007812 192.019531 C 225.789062 186.710938 213.816406 181.402344 211.226562 180.292969 C 206.78125 178.070312 206.65625 178.070312 205.300781 180.539062 C 204.558594 181.894531 204.1875 183.128906 204.4375 183.253906 C 204.683594 183.378906 216.65625 188.5625 231.097656 194.734375 C 255.660156 205.347656 257.636719 205.964844 261.953125 204.730469 C 266.273438 203.496094 281.085938 203.992188 286.269531 205.472656 C 288.492188 206.210938 291.457031 200.039062 315.894531 143.140625 C 330.828125 108.453125 343.667969 77.472656 344.40625 74.265625 C 349.839844 50.441406 325.890625 18.71875 295.035156 8.84375 C 285.40625 5.761719 279.480469 4.773438 279.480469 6.128906 Z M 279.480469 6.128906 " fill-opacity="1" fill-rule="nonzero"></path><path fill="#ff3131" d="M 229.863281 10.574219 C 228.136719 14.769531 200.734375 74.757812 185.796875 106.851562 C 183.328125 112.28125 177.898438 124.007812 173.949219 133.019531 C 169.875 142.027344 166.171875 149.1875 165.679688 149.0625 C 164.9375 148.816406 112.851562 84.878906 81.5 45.628906 C 74.585938 36.988281 68.910156 30.074219 68.785156 30.199219 C 68.539062 30.324219 69.527344 34.394531 70.882812 39.210938 C 78.414062 66.363281 106.183594 113.269531 145.3125 165.234375 L 153.953125 176.589844 L 140.621094 205.964844 C 133.214844 222.011719 127.042969 235.464844 126.796875 235.710938 C 126.675781 235.960938 124.699219 234.476562 122.601562 232.378906 C 116.183594 226.085938 108.53125 223.121094 97.050781 222.503906 C 85.324219 221.886719 78.90625 223.246094 67.058594 229.171875 C 26.449219 249.289062 15.09375 305.945312 47.679688 325.570312 C 74.339844 341.738281 115.9375 323.101562 130.746094 288.542969 C 132.230469 284.960938 139.015625 270.644531 145.929688 256.695312 C 152.839844 242.625 161.234375 224.851562 164.691406 217.199219 C 168.148438 209.421875 171.480469 202.632812 171.972656 202.140625 C 172.46875 201.644531 175.675781 204.730469 179.007812 208.929688 C 186.167969 218.0625 225.914062 265.828125 230.234375 270.519531 C 231.835938 272.25 235.417969 278.050781 238.007812 283.355469 C 250.597656 308.414062 278.125 324.214844 302.933594 320.757812 C 316.265625 319.027344 327.496094 311.003906 333.296875 299.402344 C 337.125 291.378906 338.605469 276.816406 336.382812 266.695312 C 332.929688 250.648438 320.214844 232.378906 305.898438 222.875 C 281.085938 206.335938 250.230469 209.296875 237.640625 229.171875 L 234.058594 234.601562 L 222.457031 220.160156 C 216.039062 212.136719 204.804688 198.3125 197.523438 189.300781 L 184.316406 173.007812 L 188.882812 162.148438 C 217.765625 92.902344 233.441406 39.703125 232.332031 14.277344 L 231.960938 5.636719 Z M 226.40625 38.222656 C 225.050781 47.109375 221.347656 62.414062 219 69.203125 C 218.382812 70.929688 216.53125 77.226562 214.679688 83.398438 C 210.730469 96.480469 198.265625 130.300781 188.761719 153.261719 C 185.058594 162.269531 181.972656 171.035156 181.972656 172.640625 C 181.972656 174.367188 184.070312 178.316406 186.539062 181.402344 C 189.128906 184.488281 191.847656 187.945312 192.710938 188.933594 C 193.449219 189.917969 198.511719 196.089844 203.820312 202.632812 C 209.125 209.175781 216.160156 218.0625 219.496094 222.257812 C 222.828125 226.457031 227.519531 231.886719 229.863281 234.355469 L 234.183594 238.796875 L 236.773438 235.34375 C 246.277344 222.875 255.167969 217.445312 267.757812 216.457031 C 294.910156 214.234375 323.300781 235.09375 331.941406 263.855469 C 334.410156 271.878906 334.164062 286.8125 331.570312 294.09375 C 328.730469 302.117188 321.820312 309.894531 314.535156 313.472656 C 301.453125 320.015625 279.605469 317.792969 265.289062 308.414062 C 255.414062 301.996094 245.292969 290.761719 240.601562 280.886719 C 238.257812 276.074219 235.171875 270.644531 233.6875 269.039062 C 232.332031 267.433594 229.617188 264.347656 227.886719 262.375 C 219.988281 253.488281 203.570312 233.984375 191.230469 218.554688 C 178.886719 203.25 173.824219 197.570312 172.46875 197.570312 C 170.738281 197.570312 167.652344 202.757812 161.605469 215.46875 C 157.902344 223.371094 154.816406 230.15625 154.816406 230.40625 C 154.816406 230.652344 148.890625 242.996094 141.609375 257.808594 C 134.203125 272.617188 126.675781 288.171875 124.824219 292.367188 C 115.9375 311.5 91.988281 327.175781 71.007812 327.421875 C 54.714844 327.546875 42.863281 321.128906 36.074219 308.414062 C 33.605469 303.722656 33.238281 301.378906 33.238281 288.292969 C 33.238281 273.730469 33.359375 273.359375 37.925781 263.976562 C 49.28125 240.648438 74.832031 224.480469 97.542969 226.332031 C 106.0625 226.949219 116.675781 231.269531 121.984375 236.207031 C 123.957031 238.058594 125.933594 239.539062 126.425781 239.539062 C 128.15625 239.539062 130.996094 235.09375 135.066406 225.960938 C 137.289062 220.902344 141.363281 212.015625 144.078125 206.210938 C 156.050781 180.292969 157.160156 177.699219 156.421875 175.601562 C 155.925781 174.492188 151.605469 168.195312 146.792969 161.777344 C 116.675781 121.660156 85.570312 71.179688 79.03125 51.921875 L 77.054688 46.367188 L 79.648438 49.453125 C 81.003906 51.183594 83.71875 54.144531 85.570312 56.242188 C 87.421875 58.21875 91.867188 63.773438 95.570312 68.585938 C 104.828125 80.683594 122.722656 102.777344 125.441406 105.367188 C 126.675781 106.601562 127.660156 107.960938 127.660156 108.453125 C 127.660156 108.949219 129.511719 111.292969 131.734375 113.640625 C 135.3125 117.464844 140.867188 124.253906 150.003906 135.980469 C 164.816406 154.988281 165.0625 155.113281 168.640625 150.914062 C 169.628906 149.804688 176.292969 135.980469 183.453125 120.425781 C 220.480469 39.457031 226.902344 25.753906 227.394531 27.238281 C 227.765625 28.101562 227.269531 33.039062 226.40625 38.222656 Z M 226.40625 38.222656 " fill-opacity="1" fill-rule="nonzero"></path><path fill="#ff3131" d="M 163.582031 171.15625 C 160.246094 175.355469 160.371094 178.8125 163.828125 183.007812 C 168.148438 188.191406 171.480469 188.4375 175.800781 184.117188 C 180.367188 179.550781 180.738281 174.492188 176.664062 170.664062 C 172.589844 166.835938 166.789062 167.085938 163.582031 171.15625 Z M 175.675781 174.242188 C 178.886719 179.550781 170.492188 185.597656 166.171875 181.277344 C 163.828125 178.933594 164.445312 174.492188 167.28125 172.515625 C 170.367188 170.292969 173.578125 171.035156 175.675781 174.242188 Z M 175.675781 174.242188 " fill-opacity="1" fill-rule="nonzero"></path><path fill="#ff3131" d="M 273.558594 234.109375 C 271.953125 235.835938 258.5 265.582031 256.769531 271.261719 C 255.660156 274.71875 262.820312 285.949219 269.484375 291.257812 C 285.902344 304.339844 304.664062 305.328125 313.054688 293.601562 C 315.402344 290.269531 316.019531 287.554688 316.265625 279.40625 C 316.757812 270.273438 316.386719 268.667969 313.054688 261.507812 C 310.957031 257.3125 306.515625 250.894531 303.304688 247.4375 C 292.9375 236.824219 277.382812 229.789062 273.558594 234.109375 Z M 288 239.910156 C 300.589844 245.710938 312.4375 262.742188 313.671875 276.566406 C 314.414062 284.960938 311.082031 292.738281 305.402344 295.699219 C 295.898438 300.636719 279.113281 295.699219 268.375 284.839844 C 258.5 274.964844 258.5 275.582031 266.523438 256.695312 C 270.472656 247.5625 274.050781 239.167969 274.792969 237.933594 C 276.027344 235.464844 279.359375 235.960938 288 239.910156 Z M 288 239.910156 " fill-opacity="1" fill-rule="nonzero"></path><path fill="#ff3131" d="M 84.460938 243.117188 C 66.441406 248.671875 50.023438 268.914062 48.914062 287.058594 C 48.296875 295.453125 50.148438 300.515625 55.949219 306.4375 C 68.167969 319.277344 96.308594 308.414062 108.898438 286.074219 C 112.726562 279.40625 117.789062 264.59375 117.789062 260.152344 C 117.789062 257.066406 110.011719 247.4375 104.949219 244.351562 C 101 241.882812 90.507812 241.265625 84.460938 243.117188 Z M 102.851562 247.5625 C 104.828125 248.550781 108.40625 251.636719 110.75 254.351562 L 115.070312 259.410156 L 111.984375 269.53125 C 110.257812 275.085938 107.664062 281.875 106.0625 284.589844 C 101.988281 291.628906 91.742188 300.882812 84.089844 304.339844 C 75.574219 308.414062 64.09375 308.660156 59.28125 304.835938 C 43.109375 292.121094 57.058594 258.054688 82.609375 247.808594 C 88.902344 245.339844 98.410156 245.214844 102.851562 247.5625 Z M 102.851562 247.5625 " fill-opacity="1" fill-rule="nonzero"></path><path fill="#ff3131" d="M 209.125 191.03125 C 209.25 194.363281 217.394531 200.164062 229.863281 205.472656 C 242.207031 210.902344 243.933594 211.398438 247.019531 210.039062 C 250.105469 208.558594 249.613281 208.1875 232.453125 200.78125 C 222.703125 196.585938 213.445312 192.386719 211.964844 191.523438 C 210.359375 190.785156 209.125 190.535156 209.125 191.03125 Z M 209.125 191.03125 " fill-opacity="1" fill-rule="nonzero"></path><path fill="#ff3131" d="M 228.011719 214.359375 C 233.8125 219.914062 234.058594 220.035156 236.40625 217.816406 C 238.875 215.59375 238.75 215.59375 231.21875 212.136719 C 227.023438 210.285156 223.320312 208.679688 222.828125 208.679688 C 222.457031 208.679688 224.800781 211.273438 228.011719 214.359375 Z M 228.011719 214.359375 " fill-opacity="1" fill-rule="nonzero"></path><path fill="#ff3131" d="M 184.070312 229.292969 C 182.339844 231.023438 183.328125 232.875 186.910156 234.230469 L 190.488281 235.589844 L 187.894531 232.007812 C 184.808594 227.9375 185.179688 228.183594 184.070312 229.292969 Z M 184.070312 229.292969 " fill-opacity="1" fill-rule="nonzero"></path><path fill="#ff3131" d="M 180.367188 238.429688 C 179.875 240.402344 180.613281 241.390625 183.945312 242.75 C 186.292969 243.734375 191.351562 245.957031 195.179688 247.5625 C 199.003906 249.289062 202.214844 250.523438 202.460938 250.402344 C 203.570312 249.167969 194.683594 241.761719 188.761719 239.046875 C 184.808594 237.316406 181.476562 235.835938 181.355469 235.835938 C 181.230469 235.835938 180.738281 236.945312 180.367188 238.429688 Z M 180.367188 238.429688 " fill-opacity="1" fill-rule="nonzero"></path><path fill="#ff3131" d="M 176.910156 246.945312 C 176.789062 247.5625 176.664062 248.796875 176.539062 249.414062 C 176.417969 250.648438 217.765625 269.53125 218.628906 268.792969 C 218.753906 268.546875 216.902344 266.324219 214.308594 263.976562 C 211.226562 260.890625 204.558594 257.191406 193.820312 252.621094 C 175.800781 244.847656 177.15625 245.339844 176.910156 246.945312 Z M 176.910156 246.945312 " fill-opacity="1" fill-rule="nonzero"></path><path fill="#ff3131" d="M 171.726562 258.054688 C 171.234375 260.027344 172.097656 261.015625 176.171875 262.742188 C 179.007812 263.976562 191.230469 269.039062 203.203125 274.101562 C 215.296875 279.160156 225.050781 283.851562 225.171875 284.589844 C 225.171875 289.40625 222.703125 288.789062 196.167969 277.183594 C 176.539062 268.792969 168.886719 265.953125 168.148438 267.0625 C 167.652344 267.929688 167.40625 269.039062 167.53125 269.65625 C 167.898438 270.644531 199.621094 284.960938 216.902344 291.996094 C 220.851562 293.601562 221.347656 294.21875 220.359375 296.195312 C 219.125 298.292969 217.273438 297.675781 192.214844 286.9375 C 177.40625 280.519531 164.9375 275.335938 164.566406 275.335938 C 164.074219 275.335938 163.457031 276.320312 163.210938 277.554688 C 162.59375 279.902344 165.554688 281.382812 203.820312 297.675781 C 210.855469 300.636719 216.53125 303.601562 216.53125 304.339844 C 216.53125 309.03125 213.941406 308.289062 187.527344 296.8125 C 166.914062 287.800781 160.371094 285.457031 159.628906 286.691406 C 159.011719 287.554688 158.644531 288.789062 158.890625 289.28125 C 159.136719 290.269531 186.660156 302.488281 204.558594 309.648438 C 213.324219 313.105469 213.445312 313.226562 211.71875 315.941406 C 210.855469 317.175781 204.929688 315.078125 183.699219 305.820312 C 158.519531 294.960938 156.542969 294.21875 155.558594 296.441406 C 154.941406 297.796875 154.691406 299.03125 154.941406 299.15625 C 155.1875 299.402344 167.40625 304.710938 182.09375 311.003906 C 205.175781 320.878906 208.757812 322.855469 208.261719 324.828125 C 207.890625 326.0625 207.398438 327.175781 207.273438 327.175781 C 207.027344 327.175781 194.5625 321.867188 179.378906 315.449219 C 164.320312 308.90625 151.855469 303.847656 151.730469 303.96875 C 151.484375 304.21875 151.113281 305.328125 150.867188 306.5625 C 150.621094 308.414062 155.0625 310.757812 177.28125 320.140625 C 192.09375 326.433594 204.1875 331.988281 204.1875 332.730469 C 204.1875 337.542969 201.71875 336.925781 175.183594 325.324219 C 155.308594 316.683594 147.90625 313.96875 147.164062 315.203125 C 146.671875 315.941406 146.421875 317.175781 146.546875 317.792969 C 146.792969 318.410156 158.890625 324.089844 173.453125 330.382812 C 198.386719 341.246094 201.101562 342.972656 198.265625 345.9375 C 197.769531 346.429688 185.425781 341.617188 170.863281 335.199219 C 147.164062 324.953125 144.203125 323.964844 142.71875 325.695312 C 141.980469 326.804688 141.609375 328.039062 142.101562 328.410156 C 142.71875 328.902344 154.445312 334.085938 168.394531 340.011719 C 182.339844 346.058594 193.945312 351.121094 194.191406 351.367188 C 194.5625 351.738281 193.945312 352.726562 192.957031 353.714844 C 191.351562 355.316406 188.019531 354.207031 165.433594 344.332031 C 145.558594 335.816406 139.386719 333.59375 138.648438 334.828125 C 138.03125 335.691406 137.78125 336.925781 137.90625 337.542969 C 138.152344 338.039062 148.890625 343.097656 161.976562 348.652344 C 185.179688 358.402344 185.675781 358.648438 182.09375 360.132812 C 178.640625 361.613281 176.910156 361.117188 158.273438 352.972656 C 147.164062 348.160156 137.535156 343.960938 136.671875 343.589844 C 135.929688 343.34375 134.695312 344.085938 133.957031 345.441406 C 132.847656 347.664062 133.832031 348.40625 145.929688 353.464844 C 153.210938 356.675781 160.742188 359.761719 162.714844 360.5 C 164.691406 361.242188 166.046875 362.105469 165.679688 362.351562 C 164.9375 363.21875 144.941406 359.636719 135.929688 357.167969 C 122.847656 353.589844 125.808594 357.910156 141.855469 366.054688 C 146.671875 368.402344 153.828125 371.242188 157.902344 372.226562 C 164.9375 373.957031 179.378906 374.820312 178.023438 373.339844 C 177.527344 372.96875 172.589844 371.609375 166.914062 370.375 C 156.792969 368.15625 145.558594 364.453125 148.152344 364.328125 C 148.890625 364.203125 152.472656 364.820312 156.175781 365.4375 C 162.097656 366.550781 163.210938 366.425781 166.171875 364.203125 C 169.382812 361.859375 169.875 361.734375 173.453125 363.585938 C 178.269531 366.179688 183.824219 364.945312 186.414062 360.996094 C 187.527344 359.390625 188.882812 358.28125 189.378906 358.648438 C 189.996094 359.019531 191.230469 358.898438 192.214844 358.527344 C 194.683594 357.664062 202.953125 345.074219 202.953125 342.355469 C 202.953125 341.246094 203.941406 339.273438 205.054688 338.039062 C 206.164062 336.804688 207.152344 334.828125 207.273438 333.59375 C 207.273438 332.359375 208.386719 330.015625 209.496094 328.410156 C 210.609375 326.679688 211.59375 324.214844 211.59375 322.730469 C 211.59375 321.25 212.460938 319.398438 213.445312 318.535156 C 214.433594 317.671875 215.296875 315.941406 215.296875 314.585938 C 215.296875 313.351562 216.53125 310.636719 217.890625 308.660156 C 219.371094 306.6875 220.234375 304.339844 219.863281 303.351562 C 219.496094 302.242188 219.863281 301.132812 220.851562 300.761719 C 221.839844 300.390625 222.949219 298.167969 223.320312 295.824219 C 224.925781 287.800781 226.902344 288.046875 232.703125 296.933594 C 235.664062 301.378906 238.503906 304.957031 238.996094 304.957031 C 239.492188 304.957031 239.984375 305.945312 239.984375 307.054688 C 239.984375 309.152344 227.519531 339.890625 222.828125 349.144531 C 217.273438 360.378906 208.507812 366.304688 190.242188 371.117188 L 178.886719 374.078125 L 189.007812 373.585938 C 200.734375 372.96875 209.621094 369.511719 217.394531 362.601562 C 222.828125 357.539062 224.308594 354.949219 236.15625 327.421875 L 244.796875 307.304688 L 239.367188 300.265625 C 236.40625 296.441406 232.332031 289.898438 230.355469 285.949219 L 226.777344 278.667969 L 199.992188 267.0625 C 185.304688 260.769531 173.085938 255.585938 172.835938 255.585938 C 172.589844 255.585938 172.097656 256.695312 171.726562 258.054688 Z M 171.726562 258.054688 " fill-opacity="1" fill-rule="nonzero"></path></svg>